<?xml version="1.0" encoding="UTF-8" standalone="no"?>
<!-- Created with Inkscape (http://www.inkscape.org/) -->

<svg
   xmlns:dc="http://purl.org/dc/elements/1.1/"
   xmlns:cc="http://creativecommons.org/ns#"
   xmlns:rdf="http://www.w3.org/1999/02/22-rdf-syntax-ns#"
   xmlns:svg="http://www.w3.org/2000/svg"
   xmlns="http://www.w3.org/2000/svg"
   xmlns:sodipodi="http://sodipodi.sourceforge.net/DTD/sodipodi-0.dtd"
   xmlns:inkscape="http://www.inkscape.org/namespaces/inkscape"
   width="210mm"
   height="297mm"
   viewBox="0 0 744.09448819 1052.3622047"
   id="svg2"
   version="1.1"
   inkscape:version="0.91 r13725"
   sodipodi:docname="brickButton.svg">
  <sodipodi:namedview
     id="base"
     pagecolor="#ffffff"
     bordercolor="#666666"
     borderopacity="1.0"
     inkscape:pageopacity="0.0"
     inkscape:pageshadow="2"
     inkscape:zoom="0.98994949"
     inkscape:cx="89.082809"
     inkscape:cy="233.91746"
     inkscape:document-units="px"
     inkscape:current-layer="g4609"
     showgrid="false"
     inkscape:window-width="1366"
     inkscape:window-height="705"
     inkscape:window-x="-8"
     inkscape:window-y="-8"
     inkscape:window-maximized="1" />
  <defs
     id="defs4">
    <inkscape:perspective
       id="perspective4140"
       inkscape:persp3d-origin="372.04724 : 350.7874 : 1"
       inkscape:vp_z="-218.76265 : 164.75252 : 1"
       inkscape:vp_y="6.1230318e-014 : 1000 : 0"
       inkscape:vp_x="1005.7143 : 691.89536 : 1"
       sodipodi:type="inkscape:persp3d" />
  </defs>
  <metadata
     id="metadata7">
    <rdf:RDF>
      <cc:Work
         rdf:about="">
        <dc:format>image/svg+xml</dc:format>
        <dc:type
           rdf:resource="http://purl.org/dc/dcmitype/StillImage" />
        <dc:title />
      </cc:Work>
    </rdf:RDF>
  </metadata>
  <g
     id="layer1"
     inkscape:groupmode="layer"
     inkscape:label="Layer 1">
    <circle
       cy="927.36218"
       cx="125"
       id="path3336"
       style="fill:#2040a4;fill-opacity:1;fill-rule:evenodd;stroke:#000000;stroke-width:5.12026119;stroke-linecap:butt;stroke-linejoin:miter;stroke-miterlimit:4;stroke-dasharray:none;stroke-dashoffset:0;stroke-opacity:1"
       r="122.43987" />
    <g
       id="g4631"
       transform="translate(41.046541,202.5)"
       style="stroke:#000000;stroke-opacity:1;stroke-linecap:butt">
      <g
         id="g4600"
         style="stroke:#000000;stroke-opacity:1;stroke-linecap:butt;stroke-width:2;stroke-miterlimit:4;stroke-dasharray:none">
        <path
           id="path4467"
           d="m 108.47202,672.3622 -1e-5,70.00002 60.0994,0 1e-5,-70.00002 -60.0994,0"
           style="fill:#fde147;fill-opacity:1;stroke:#000000;stroke-width:2;stroke-opacity:1;stroke-linecap:butt;stroke-miterlimit:4;stroke-dasharray:none"
           inkscape:connector-curvature="0" />
        <path
           id="path4297"
           d="m 108.47201,742.36222 60.0994,0 L 60.0994,792.3622 0,792.3622 Z"
           style="fill:#fde147;fill-opacity:1;stroke:#000000;stroke-width:2;stroke-miterlimit:4;stroke-dasharray:none;stroke-dashoffset:0;stroke-opacity:1;stroke-linecap:butt"
           inkscape:connector-curvature="0" />
        <path
           id="path4475"
           d="m 108.47202,672.3622 -1e-5,70.00002 0,0 1e-5,-70.00002 0,0"
           style="fill:#fde147;fill-opacity:1;stroke:#000000;stroke-width:2;stroke-opacity:1;stroke-linecap:butt;stroke-miterlimit:4;stroke-dasharray:none"
           inkscape:connector-curvature="0" />
        <path
           id="path4473"
           d="m 0,722.36218 0,70.00002 108.47201,-49.99998 1e-5,-70.00002 L 0,722.36218"
           style="fill:#fde147;fill-opacity:1;stroke:#000000;stroke-width:2;stroke-opacity:1;stroke-linecap:butt;stroke-miterlimit:4;stroke-dasharray:none"
           inkscape:connector-curvature="0" />
        <path
           style="fill:#fde147;fill-opacity:1;stroke:#000000;stroke-width:2;stroke-miterlimit:4;stroke-dasharray:none;stroke-dashoffset:0;stroke-opacity:1;stroke-linecap:butt"
           d="m 108.47202,672.3622 60.0994,0 -108.47202,49.99998 -60.0994,0 z"
           id="rect4292"
           inkscape:connector-curvature="0" />
        <path
           id="path4469"
           d="m 168.57142,672.3622 -1e-5,70.00002 -108.47201,49.99998 0,-70.00002 108.47202,-49.99998"
           style="fill:#fde147;fill-opacity:1;stroke:#000000;stroke-width:2;stroke-opacity:1;stroke-linecap:butt;stroke-miterlimit:4;stroke-dasharray:none"
           inkscape:connector-curvature="0" />
        <path
           id="path4471"
           d="m 60.0994,722.36218 0,70.00002 -60.0994,0 0,-70.00002 60.0994,0"
           style="fill:#fde147;fill-opacity:1;stroke:#000000;stroke-width:2;stroke-opacity:1;stroke-linecap:butt;stroke-miterlimit:4;stroke-dasharray:none"
           inkscape:connector-curvature="0" />
      </g>
      <g
         id="g4609"
         transform="matrix(1.0065106,0,0,0.85803731,74.537991,219.6986)"
         style="stroke:#000000;stroke-opacity:1;stroke-linecap:butt">
        <path
           id="path4611"
           d="m 29.642857,537.00508 0,-40.00003 27.142856,6.42857 0,40.00003 -27.142856,-6.42857"
           style="fill:#fde147;fill-opacity:1;stroke:#000000;stroke-width:2.15212619;stroke-opacity:1;stroke-linecap:butt;stroke-miterlimit:4;stroke-dasharray:none"
           inkscape:connector-curvature="0" />
        <path
           id="path4613"
           d="m 2.5,543.43365 0,-40.00003 27.142857,-6.42857 0,40.00003 L 2.5,543.43365"
           style="fill:#fde147;fill-opacity:1;stroke:#000000;stroke-width:2.15212619;stroke-opacity:1;stroke-linecap:butt;stroke-miterlimit:4;stroke-dasharray:none"
           inkscape:connector-curvature="0" />
        <path
           style="fill:#fde147;fill-opacity:1;stroke:#000000;stroke-width:2.15212619;stroke-miterlimit:4;stroke-dasharray:none;stroke-dashoffset:0;stroke-opacity:1;stroke-linecap:butt"
           d="M 56.785713,543.43365 A 27.142857,6.4285712 0 0 1 29.642857,549.86223 27.142857,6.4285712 0 0 1 2.5,543.43365 a 27.142857,6.4285712 0 0 1 27.142857,-6.42857 27.142857,6.4285712 0 0 1 27.142856,6.42857 z"
           id="path4615"
           inkscape:connector-curvature="0" />
        <path
           style="fill:#fde147;fill-opacity:1;stroke:#000000;stroke-width:2.15212619;stroke-miterlimit:4;stroke-dasharray:none;stroke-dashoffset:0;stroke-opacity:1;stroke-linecap:butt"
           d="M 56.785713,503.43362 A 27.142857,6.4285712 0 0 1 29.642857,509.8622 27.142857,6.4285712 0 0 1 2.5,503.43362 a 27.142857,6.4285712 0 0 1 27.142857,-6.42857 27.142857,6.4285712 0 0 1 27.142856,6.42857 z"
           id="path4617"
           inkscape:connector-curvature="0" />
        <path
           id="path4619"
           d="m 56.785713,543.43365 0,-40.00003 -7.949945,4.54569 0,40.00003 7.949945,-4.54569"
           style="fill:#fde147;fill-opacity:1;stroke:#000000;stroke-width:2.15212619;stroke-opacity:1;stroke-linecap:butt;stroke-miterlimit:4;stroke-dasharray:none"
           inkscape:connector-curvature="0" />
        <path
           id="path4621"
           d="m 48.835768,547.97934 0,-40.00003 -19.192911,1.88289 0,40.00003 19.192911,-1.88289"
           style="fill:#fde147;fill-opacity:1;stroke:#000000;stroke-width:2.15212619;stroke-opacity:1;stroke-linecap:butt;stroke-miterlimit:4;stroke-dasharray:none"
           inkscape:connector-curvature="0" />
        <path
           id="path4623"
           d="m 10.449946,547.97934 0,-40.00003 L 2.5,503.43362 l 0,40.00003 7.949946,4.54569"
           style="fill:#fde147;fill-opacity:1;stroke:#000000;stroke-width:2.15212619;stroke-opacity:1;stroke-linecap:butt;stroke-miterlimit:4;stroke-dasharray:none"
           inkscape:connector-curvature="0" />
        <path
           id="path4625"
           d="m 29.642857,549.86223 0,-40.00003 -19.192911,-1.88289 0,40.00003 19.192911,1.88289"
           style="fill:#fde147;fill-opacity:1;stroke:#000000;stroke-width:2.15212619;stroke-opacity:1;stroke-linecap:butt;stroke-miterlimit:4;stroke-dasharray:none"
           inkscape:connector-curvature="0" />
        <path
           id="path4627"
           d="m 56.785713,543.43365 0,-40.00003 0,0 0,40.00003 0,0"
           style="fill:#fde147;fill-opacity:1;stroke:#000000;stroke-width:2.15212619;stroke-opacity:1;stroke-linecap:butt;stroke-miterlimit:4;stroke-dasharray:none"
           inkscape:connector-curvature="0" />
        <path
           id="path4629"
           d="m 56.785713,543.43365 0,-40.00003 0,0 0,40.00003 0,0"
           style="fill:#fde147;fill-opacity:1;stroke:#000000;stroke-width:2.15212619;stroke-opacity:1;stroke-linecap:butt;stroke-miterlimit:4;stroke-dasharray:none"
           inkscape:connector-curvature="0" />
      </g>
      <g
         transform="matrix(1.0065106,0,0,0.85803731,25.081126,243.88135)"
         id="g4588"
         style="stroke:#000000;stroke-opacity:1;stroke-linecap:butt;stroke-width:2.15212619;stroke-miterlimit:4;stroke-dasharray:none">
        <path
           inkscape:connector-curvature="0"
           style="fill:#fde147;fill-opacity:1;stroke:#000000;stroke-width:2.15212619;stroke-opacity:1;stroke-linecap:butt;stroke-miterlimit:4;stroke-dasharray:none"
           d="m 29.642857,537.00508 0,-40.00003 27.142856,6.42857 0,40.00003 -27.142856,-6.42857"
           id="path4531" />
        <path
           inkscape:connector-curvature="0"
           style="fill:#fde147;fill-opacity:1;stroke:#000000;stroke-width:2.15212619;stroke-opacity:1;stroke-linecap:butt;stroke-miterlimit:4;stroke-dasharray:none"
           d="m 2.5,543.43365 0,-40.00003 27.142857,-6.42857 0,40.00003 L 2.5,543.43365"
           id="path4529" />
        <path
           inkscape:connector-curvature="0"
           id="path4495"
           d="M 56.785713,543.43365 A 27.142857,6.4285712 0 0 1 29.642857,549.86223 27.142857,6.4285712 0 0 1 2.5,543.43365 a 27.142857,6.4285712 0 0 1 27.142857,-6.42857 27.142857,6.4285712 0 0 1 27.142856,6.42857 z"
           style="fill:#fde147;fill-opacity:1;stroke:#000000;stroke-width:2.15212619;stroke-miterlimit:4;stroke-dasharray:none;stroke-dashoffset:0;stroke-opacity:1;stroke-linecap:butt" />
        <path
           inkscape:connector-curvature="0"
           id="ellipse4499"
           d="M 56.785713,503.43362 A 27.142857,6.4285712 0 0 1 29.642857,509.8622 27.142857,6.4285712 0 0 1 2.5,503.43362 a 27.142857,6.4285712 0 0 1 27.142857,-6.42857 27.142857,6.4285712 0 0 1 27.142856,6.42857 z"
           style="fill:#fde147;fill-opacity:1;stroke:#000000;stroke-width:2.15212619;stroke-miterlimit:4;stroke-dasharray:none;stroke-dashoffset:0;stroke-opacity:1;stroke-linecap:butt" />
        <path
           inkscape:connector-curvature="0"
           style="fill:#fde147;fill-opacity:1;stroke:#000000;stroke-width:2.15212619;stroke-opacity:1;stroke-linecap:butt;stroke-miterlimit:4;stroke-dasharray:none"
           d="m 56.785713,543.43365 0,-40.00003 -7.949945,4.54569 0,40.00003 7.949945,-4.54569"
           id="path4521" />
        <path
           inkscape:connector-curvature="0"
           style="fill:#fde147;fill-opacity:1;stroke:#000000;stroke-width:2.15212619;stroke-opacity:1;stroke-linecap:butt;stroke-miterlimit:4;stroke-dasharray:none"
           d="m 48.835768,547.97934 0,-40.00003 -19.192911,1.88289 0,40.00003 19.192911,-1.88289"
           id="path4523" />
        <path
           inkscape:connector-curvature="0"
           style="fill:#fde147;fill-opacity:1;stroke:#000000;stroke-width:2.15212619;stroke-opacity:1;stroke-linecap:butt;stroke-miterlimit:4;stroke-dasharray:none"
           d="m 10.449946,547.97934 0,-40.00003 L 2.5,503.43362 l 0,40.00003 7.949946,4.54569"
           id="path4527" />
        <path
           inkscape:connector-curvature="0"
           style="fill:#fde147;fill-opacity:1;stroke:#000000;stroke-width:2.15212619;stroke-opacity:1;stroke-linecap:butt;stroke-miterlimit:4;stroke-dasharray:none"
           d="m 29.642857,549.86223 0,-40.00003 -19.192911,-1.88289 0,40.00003 19.192911,1.88289"
           id="path4525" />
        <path
           inkscape:connector-curvature="0"
           style="fill:#fde147;fill-opacity:1;stroke:#000000;stroke-width:2.15212619;stroke-opacity:1;stroke-linecap:butt;stroke-miterlimit:4;stroke-dasharray:none"
           d="m 56.785713,543.43365 0,-40.00003 0,0 0,40.00003 0,0"
           id="path4533" />
        <path
           inkscape:connector-curvature="0"
           style="fill:#fde147;fill-opacity:1;stroke:#000000;stroke-width:2.15212619;stroke-opacity:1;stroke-linecap:butt;stroke-miterlimit:4;stroke-dasharray:none"
           d="m 56.785713,543.43365 0,-40.00003 0,0 0,40.00003 0,0"
           id="path4535" />
      </g>
    </g>
  </g>
</svg>
